<?xml version="1.0" encoding="UTF-8" standalone="no"?>


<svg
   version="1.1"
   id="Capa_1"
   x="0px"
   y="0px"
   width="5397.0127"
   height="720"
   viewBox="0 0 5397.0124 719.99999"
   enable-background="new 0 0 595.28 841.89"
   xml:space="preserve"
   sodipodi:docname="Logo de Liconsa.svg"
   inkscape:version="1.1 (c68e22c387, 2021-05-23)"
   xmlns:inkscape="http://www.inkscape.org/namespaces/inkscape"
   xmlns:sodipodi="http://sodipodi.sourceforge.net/DTD/sodipodi-0.dtd"
   xmlns="http://www.w3.org/2000/svg"
   xmlns:svg="http://www.w3.org/2000/svg"><defs
   id="defs35" /><sodipodi:namedview
   id="namedview33"
   pagecolor="#ffffff"
   bordercolor="#666666"
   borderopacity="1.0"
   inkscape:pageshadow="2"
   inkscape:pageopacity="0.0"
   inkscape:pagecheckerboard="0"
   showgrid="false"
   fit-margin-top="0"
   fit-margin-left="0"
   fit-margin-right="0"
   fit-margin-bottom="0"
   inkscape:zoom="0.12353158"
   inkscape:cx="3039.7087"
   inkscape:cy="-182.13967"
   inkscape:window-width="1920"
   inkscape:window-height="1017"
   inkscape:window-x="1912"
   inkscape:window-y="-8"
   inkscape:window-maximized="1"
   inkscape:current-layer="Capa_1" />
<g
   id="g30"
   transform="matrix(11.987686,0,0,11.987686,-911.37857,-4699.5858)">
	<g
   id="g28">
		
		<path
   fill-rule="evenodd"
   clip-rule="evenodd"
   fill="#7e7e7e"
   d="m 323.457,427.908 c -0.447,-7.79 -0.27,-15.709 -1.427,-23.582 -0.521,-3.545 -3.785,-3.201 -5.944,-4.174 -1.549,-0.7 -2.727,-0.963 -2.314,-2.964 0.369,-1.798 1.096,-2.748 3.226,-2.7 6.491,0.146 12.99,0.131 19.481,-0.003 2.046,-0.042 2.83,0.796 3.271,2.609 0.498,2.043 -0.665,2.872 -2.245,3.125 -4.039,0.646 -4.819,3.097 -5.009,6.854 -0.652,12.977 -0.817,25.952 -0.703,38.934 0.02,2.373 -0.314,3.85 -3.111,3.663 -0.972,-0.064 -1.974,0.255 -2.956,0.436 -3.405,0.624 -5.532,-0.44 -7.599,-3.595 -6.963,-10.625 -14.897,-20.552 -23.629,-30.626 0,4.059 -0.064,7.58 0.021,11.096 0.068,2.868 0.387,5.729 0.465,8.598 0.179,6.534 0.394,6.951 6.804,8.675 2.526,0.68 3.702,1.635 2.456,4.406 -0.499,1.112 -0.972,1.5 -2.127,1.494 -7.119,-0.035 -14.24,-0.115 -21.356,0.045 -2.488,0.057 -2.259,-1.643 -2.798,-3.088 -0.802,-2.149 0.894,-2.457 2.083,-2.654 3.76,-0.624 4.852,-2.784 4.92,-6.424 0.195,-10.359 0.476,-20.704 -0.081,-31.066 -0.182,-3.38 -1.583,-5.271 -4.581,-6.375 -1.706,-0.627 -2.995,-1.371 -2.344,-3.796 0.63,-2.35 2.025,-2.28 3.864,-2.286 3.616,-0.009 7.25,-0.053 10.841,-0.428 2.852,-0.299 4.374,0.649 5.972,3.121 6.912,10.69 15.032,20.488 23.225,30.213 0.296,0.352 0.574,0.84 1.595,0.492 z"
   id="path4" />
		<path
   id="path6"
   d="m 172.3125,-0.83203125 c -10.94846,-0.0577441 -22.07156,5.40789065 -27.57031,15.22851525 -8.4,15.004 -3.92017,33.827266 10.04883,40.197266 22.132,10.093 45.48096,-4.580641 44.79296,-26.806641 0.125,-9.473 -2.3709,-16.845921 -9.0039,-22.2949215 -5.19225,-4.266 -11.69851,-6.28957227 -18.26758,-6.32421875 z m -2.13477,8.54492185 c 4.7772,0.1285327 9.65344,2.9190624 11.34375,7.0234374 4.023,9.771 3.85477,19.680891 0.38477,29.587891 -0.562,1.604 -1.68861,2.634687 -3.22461,3.429687 -7.504,3.887 -16.29247,1.138953 -20.10547,-6.373047 -1.768,-3.482 -2.56937,-7.505562 -2.60937,-13.351562 -0.208,-4.052 0.72914,-8.177984 2.11914,-12.208985 1.963,-5.694999 4.90667,-7.7926557 11.13867,-8.0976558 0.31662,-0.0155 0.63464,-0.018334 0.95312,-0.00977 z"
   transform="translate(76.02623,393.7796)"
   style="fill:#7f7f7f;fill-opacity:1" />
		<path
   id="path8"
   d="m 353.01172,0.00390625 c -0.19725,-0.00889453 -0.4103,-0.00321875 -0.63867,0.01953125 -2.975,0.297 -5.95746,0.68275 -8.93946,0.71875 -2.553,0.032 -3.76643,1.1557188 -4.52343,3.5117187 -3.933,12.2269998 -9.12177,23.9740308 -14.00977,35.8320318 -1.84,4.465 -3.50214,9.123593 -8.86914,10.808593 -2.115,0.664 -0.97264,2.497235 -0.93164,3.865235 0.051,1.61 1.25406,1.598609 2.41406,1.599609 6.993,10e-4 13.98456,-0.0337 20.97656,0.0293 1.639,0.016 2.56207,-0.360125 2.66407,-2.203125 0.085,-1.546 0.42189,-2.977235 -1.66211,-3.490235 -1.322,-0.325 -2.57896,-0.909749 -3.87696,-1.34375 -1.403,-0.468999 -3.46242,-0.811687 -2.48242,-2.804687 1.146,-2.333 -0.035,-6.390656 4,-6.722656 5.217,-0.429 10.47099,-0.417938 15.70899,-0.585938 0.742,-0.024 1.76392,-0.165734 2.04492,0.572266 1.058,2.777 2.43084,5.575937 2.71484,8.460937 0.204,2.081 -2.61333,1.762172 -4.11133,2.326172 -1.875,0.709 -1.92689,1.845485 -1.71289,3.521485 0.219,1.72 0.89791,2.321437 2.62891,2.273437 3.867,-0.106 7.74033,-0.0332 11.61133,-0.0332 3.495,0 6.99137,0.04147 10.48437,-0.01953 1.596,-0.028 3.35957,0.650843 3.85157,-2.160156 0.449,-2.569 -0.72499,-3.117954 -2.58399,-3.876954 -1.963,-0.802 -4.18428,-0.982765 -5.23828,-3.634765 -5.837,-14.697 -12.02723,-29.25711 -16.99023,-44.2871096 -0.49088,-1.48575003 -1.14858,-2.31469143 -2.5293,-2.37695315 z M 344.4082,12.830078 c 0.315,0.007 0.62936,0.01444 0.94336,0.02344 2.169,5.896 4.32053,11.8015 6.51953,17.6875 0.515,1.378 0.002,1.832687 -1.3125,1.804687 -3.491,-0.076 -6.98161,-0.190219 -10.47461,-0.199219 -1.766,-0.006 -2.27771,-0.89514 -1.76171,-2.36914 1.985,-5.665 4.05093,-11.301266 6.08593,-16.947266 z"
   transform="translate(76.02623,393.7796)"
   style="fill:#7f7f7f;fill-opacity:1" />
		<path
   fill-rule="evenodd"
   clip-rule="evenodd"
   fill="#7f7f7f"
   d="m 342.922,440.242 c -0.001,-0.249 -0.008,-0.499 0,-0.749 0.208,-6.153 -1.467,-5.825 5.981,-6.162 2.526,-0.114 3.719,0.547 4.342,3.179 0.597,2.517 0.55,5.82 3.745,6.859 3.985,1.297 8.19,1.541 12.133,0.096 3.649,-1.338 3.396,-8.707 -0.423,-11.045 -2.635,-1.613 -5.629,-2.637 -8.459,-3.932 -2.939,-1.344 -5.981,-2.507 -8.788,-4.086 -5.627,-3.167 -8.955,-7.794 -8.548,-14.6 0.388,-6.463 4.134,-10.722 9.491,-13.378 10.052,-4.983 20.243,-4.353 30.287,0.376 2.208,1.038 3.199,2.576 2.547,5.075 -0.473,1.807 -0.824,3.654 -1.101,5.502 -0.525,3.507 -2.2,4.942 -5.999,4.648 -3.056,-0.236 -4.23,-1.081 -4.682,-4.216 -0.97,-6.757 -7.403,-9.896 -13.578,-6.809 -2.845,1.421 -2.708,4.307 -2.317,6.906 0.708,4.708 4.453,6.675 8.262,8.386 4.204,1.89 8.603,3.375 12.538,5.819 6.938,4.309 9.706,11.12 7.185,17.86 -2.042,5.461 -6.334,8.571 -11.733,10.124 -7.875,2.266 -15.839,1.856 -23.646,-0.259 -7.279,-1.97 -7.224,-2.17 -7.237,-9.594 z"
   id="path10" />
		<path
   fill-rule="evenodd"
   clip-rule="evenodd"
   fill="#7f7f7f"
   d="m 212.692,438.355 c 0.084,7.808 -0.649,8.713 -8.145,10.963 -7.543,2.265 -15.179,3.067 -22.899,1.297 -20.101,-4.609 -24.868,-24.197 -18.621,-39.001 6.349,-15.045 23.094,-21.94 39.879,-17.361 11.917,3.251 11.917,3.251 9.318,15.503 -1.148,5.417 -1.584,5.608 -7.18,4.849 -2.143,-0.291 -2.755,-1.291 -3.293,-3.238 -0.791,-2.856 -0.235,-6.559 -3.666,-8.125 -4.737,-2.164 -9.651,-2.287 -14.558,-0.483 -1.722,0.633 -2.931,1.982 -3.688,3.564 -3.832,8.012 -5.352,16.282 -2.498,24.98 2.923,8.907 11.732,13.329 20.613,10.472 2.517,-0.81 2.879,-2.847 3.494,-4.866 1.775,-5.828 1.78,-5.717 7.776,-5.657 2.482,0.025 3.783,0.653 3.489,3.36 -0.132,1.234 -0.021,2.495 -0.021,3.743 z"
   id="path12" />
		<path
   fill-rule="evenodd"
   clip-rule="evenodd"
   fill="#7f7f7f"
   d="m 100.583,450.141 c -6.865,0 -13.73,-0.087 -20.593,0.05 -2.193,0.044 -3.364,-0.486 -3.831,-2.78 -0.497,-2.439 1.169,-2.919 2.696,-3.15 3.594,-0.544 4.548,-2.722 4.532,-5.987 -0.048,-9.733 0.04,-19.468 0.048,-29.202 0.004,-4.276 -1.004,-7.976 -5.842,-9.143 -1.469,-0.354 -1.858,-1.226 -1.363,-2.463 0.488,-1.217 0.123,-3.016 2.5,-2.976 7.861,0.129 15.726,0.074 23.588,0.032 1.942,-0.011 2.089,1.205 2.324,2.667 0.227,1.401 0.304,2.591 -1.442,2.78 -5.4,0.581 -5.675,4.25 -5.589,8.553 0.187,9.23 0.008,18.468 0.128,27.7 0.082,6.299 1.042,7.137 7.193,7.163 0.125,0 0.25,-10e-4 0.375,0 8.032,0.011 8.296,0.072 10.062,-7.61 1.242,-5.403 4.877,-2.726 7.685,-2.898 3.445,-0.211 2.366,2.461 2.427,4.215 0.113,3.24 -0.121,6.498 0.079,9.73 0.157,2.544 -0.542,3.459 -3.262,3.387 -7.233,-0.197 -14.476,-0.069 -21.715,-0.068 z"
   id="path14" />
		<path
   fill-rule="evenodd"
   clip-rule="evenodd"
   fill="#7e7e7e"
   d="m 143.021,450.14 c -3.746,-0.002 -7.495,-0.076 -11.238,0.029 -1.908,0.054 -2.451,-0.705 -2.767,-2.539 -0.328,-1.902 0.116,-2.967 1.904,-3.209 4.21,-0.57 5.217,-3.066 5.134,-6.991 -0.207,-9.734 -0.13,-19.477 -0.028,-29.215 0.041,-3.91 -1.203,-6.833 -5.112,-8.069 -1.725,-0.545 -2.364,-1.222 -1.895,-3.2 0.438,-1.843 1.211,-2.462 3.016,-2.448 7.492,0.057 14.987,0.1 22.477,-0.027 2.008,-0.034 2.458,0.911 2.857,2.536 0.426,1.731 -0.051,2.752 -1.756,2.979 -4.727,0.63 -5.303,3.94 -5.293,7.793 0.024,9.487 -0.026,18.976 -0.045,28.465 -0.008,3.948 1.108,7.147 5.456,8.205 1.679,0.409 2.066,1.349 1.62,3.056 -0.409,1.565 -0.598,2.771 -2.718,2.685 -3.864,-0.162 -7.74,-0.048 -11.612,-0.05 z"
   id="path16" />
		
		
		
		
		
	</g>
</g>
<rect
   style="fill:#3c5c51;fill-opacity:1;stroke-width:16.6324"
   id="rect1171"
   width="311.87167"
   height="720"
   x="4733.3506"
   y="0" /><rect
   style="fill:#3d5c51;fill-opacity:1;stroke-width:11.9051"
   id="rect4788"
   width="323.66754"
   height="323.66754"
   x="5073.3452"
   y="395.59366" /></svg>
